<?xml version="1.0" encoding="UTF-8"?>
<svg width="100px" height="115px" viewBox="0 0 100 115" version="1.1" xmlns="http://www.w3.org/2000/svg" xmlns:xlink="http://www.w3.org/1999/xlink">
    <!-- Generator: sketchtool 52.6 (67491) - http://www.bohemiancoding.com/sketch -->
    <title>2F1EBF1E-89EE-409A-AC9A-05B386B18E02</title>
    <desc>Created with sketchtool.</desc>
    <defs>
        <path d="M74.4420455,1.62916667 L5.23530303,41.5829545 C3.65810606,42.2973485 2.27083333,43.5170455 1.3294697,45.1897727 C-1.03219697,49.3890152 0.280757576,54.8079545 4.26090909,57.2996212 C7.085,59.0681818 10.4871212,58.8765152 13.0717424,57.1166667 C13.2781818,56.9772727 13.4763636,56.8291667 13.6662879,56.6723485 L78.0340909,8.89507576 C78.422197,8.61628788 79.3057576,7.89318182 79.5369697,7.66666667 L79.5534848,7.64924242 C80.2553788,6.95227273 80.717803,5.99393939 80.7673485,4.89621212 C80.874697,2.66590909 79.239697,0.757954545 77.1257576,0.653409091 C77.059697,0.653409091 77.0018939,0.64469697 76.9358333,0.64469697 C75.9944697,0.635984848 75.1191667,1.01060606 74.4420455,1.62916667" id="path-1"></path>
        <linearGradient x1="25.5529856%" y1="65.0834307%" x2="75.0098365%" y2="34.5203898%" id="linearGradient-3">
            <stop stop-color="#FCEE39" offset="0%"></stop>
            <stop stop-color="#F37B3D" offset="100%"></stop>
        </linearGradient>
        <path d="M0.222954545,7.57954545 C0.222954545,9.37424242 0.900075758,11.0034091 1.99007576,12.2143939 L2.01484848,12.2318182 C2.31212121,12.5541667 2.63416667,12.8503788 2.98924242,13.1117424 L58.6205303,63.3806818 L58.6287879,63.3632576 C59.2728788,64.0079545 60.1151515,64.4261364 61.0647727,64.4784091 C63.1787121,64.5916667 64.9788636,62.8666667 65.0862121,60.6363636 C65.1440152,59.442803 64.6981061,58.3625 63.9549242,57.5784091 L63.9631818,57.569697 L11.3128788,3.03181818 C10.140303,1.69015152 8.47227273,0.836363636 6.61431818,0.836363636 C3.09659091,0.836363636 0.222954545,3.87689394 0.222954545,7.57954545" id="path-4"></path>
        <linearGradient x1="28.0549176%" y1="30.8091696%" x2="75.3936316%" y2="72.2665847%" id="linearGradient-6">
            <stop stop-color="#EF5A6B" offset="0%"></stop>
            <stop stop-color="#F26F4E" offset="57%"></stop>
            <stop stop-color="#F37B3D" offset="100%"></stop>
        </linearGradient>
        <path d="M1.16431818,6.62992424 C-0.404621212,11.0643939 1.28818182,15.9431818 4.97931818,18.330303 L5.00409091,18.3477273 C5.49954545,18.6613636 6.01977273,18.9401515 6.58128788,19.1579545 C6.91159091,19.2886364 44.0541667,35.5454545 44.0541667,35.5454545 L44.0541667,35.5367424 C45.5075,36.225 47.2663636,35.8329545 48.2985606,34.4564394 C49.5124242,32.8359848 49.2481818,30.475 47.7122727,29.1943182 C47.6379545,29.1333333 15.2269697,2.11704545 14.5581061,1.69015152 L14.5250758,1.66401515 L14.5250758,1.67272727 C14.0626515,1.37651515 13.567197,1.12386364 13.0387121,0.914772727 C11.9734848,0.496590909 10.8834848,0.296212121 9.81,0.296212121 C6.06931818,0.2875 2.55159091,2.7094697 1.16431818,6.62992424" id="path-7"></path>
        <linearGradient x1="75.3075201%" y1="66.0882979%" x2="31.8246944%" y2="38.3790491%" id="linearGradient-9">
            <stop stop-color="#7C59A4" offset="0%"></stop>
            <stop stop-color="#AF4C92" offset="38.52%"></stop>
            <stop stop-color="#DC4183" offset="76.54%"></stop>
            <stop stop-color="#ED3D7D" offset="95.7%"></stop>
            <stop stop-color="#ED3D7D" offset="100%"></stop>
        </linearGradient>
        <path d="M37.5389394,2.15189394 L4.5994697,25.5265152 C4.53340909,25.5700758 4.46734848,25.6136364 4.40954545,25.6659091 L4.36825758,25.7007576 C2.95621212,26.7810606 1.82492424,28.2969697 1.16431818,30.1526515 C-0.619318182,35.1882576 1.80840909,40.7988636 6.58128788,42.6806818 C9.5705303,43.8568182 12.7744697,43.2992424 15.1856818,41.4784091 L15.1939394,41.469697 C15.7306818,41.0602273 16.2261364,40.5897727 16.6720455,40.0583333 L45.2432576,12.8939394 L45.235,12.8765152 C46.7296212,11.6393939 47.6957576,9.72272727 47.6957576,7.57083333 C47.6957576,3.8594697 44.8138636,0.827651515 41.3043939,0.827651515 C39.8923485,0.836363636 38.5959091,1.32424242 37.5389394,2.15189394" id="path-10"></path>
        <linearGradient x1="73.1634062%" y1="30.8561319%" x2="34.4690137%" y2="62.8651182%" id="linearGradient-12">
            <stop stop-color="#EF5A6B" offset="0%"></stop>
            <stop stop-color="#EE4E72" offset="36.4%"></stop>
            <stop stop-color="#ED3D7D" offset="100%"></stop>
        </linearGradient>
    </defs>
    <g id="All-Products-Pack" stroke="none" stroke-width="1" fill="none" fill-rule="evenodd">
        <g id="All-Products-Pack-" transform="translate(-55.000000, -4489.000000)">
            <g id="Group-8-Copy" transform="translate(0.000000, 4452.000000)">
                <g id="Group" transform="translate(54.000000, 37.000000)">
                    <g id="JB" transform="translate(0.947917, 0.000000)">
                        <g id="Clipped" transform="translate(18.992424, 55.757576)">
                            <mask id="mask-2" fill="white">
                                <use xlink:href="#path-1"></use>
                            </mask>
                            <g id="SVGID_1_"></g>
                            <polygon id="Shape" fill="url(#linearGradient-3)" fill-rule="nonzero" mask="url(#mask-2)" points="20.8421212 97.2882576 105.374924 43.4647727 59.0086364 -37.592803 -25.5241667 16.2393939"></polygon>
                        </g>
                        <g id="Clipped" transform="translate(34.681818, 0.000000)">
                            <mask id="mask-5" fill="white">
                                <use xlink:href="#path-4"></use>
                            </mask>
                            <g id="SVGID_4_"></g>
                            <polygon id="Shape" fill="url(#linearGradient-6)" fill-rule="nonzero" mask="url(#mask-5)" points="-29.7272727 36.9393939 36.9774242 98.542803 95.0942424 28.5060606 28.3895455 -33.1060606"></polygon>
                        </g>
                        <g id="Clipped" transform="translate(0.000000, 23.522727)">
                            <mask id="mask-8" fill="white">
                                <use xlink:href="#path-7"></use>
                            </mask>
                            <g id="SVGID_7_"></g>
                            <polygon id="Shape" fill="url(#linearGradient-9)" fill-rule="nonzero" mask="url(#mask-8)" points="64.8219697 10.3761364 13.6002273 -23.3746212 -15.7141667 26.1450758 35.5075758 59.8958333"></polygon>
                        </g>
                        <g id="Clipped">
                            <mask id="mask-11" fill="white">
                                <use xlink:href="#path-10"></use>
                            </mask>
                            <g id="SVGID_10_"></g>
                            <polygon id="Shape" fill="url(#linearGradient-12)" fill-rule="nonzero" mask="url(#mask-11)" points="28.1005303 -24.1848485 -20.6439394 18.2867424 18.9676515 68.8867424 67.7121212 26.4151515"></polygon>
                        </g>
                        <polygon id="Rectangle-path" fill="#000000" fill-rule="nonzero" points="29.1327273 33.4284091 71.2133333 33.4284091 71.2133333 77.8253788 29.1327273 77.8253788"></polygon>
                        <polygon id="Rectangle-path" fill="#FFFFFF" fill-rule="nonzero" points="32.7660606 69.505303 48.5462879 69.505303 48.5462879 72.2757576 32.7660606 72.2757576"></polygon>
                        <path d="M32.5843939,45.1200758 L33.8065152,43.9003788 C34.1368182,44.3272727 34.4506061,44.5712121 34.8882576,44.5712121 C35.3589394,44.5712121 35.6644697,44.2314394 35.6644697,43.5606061 L35.6644697,38.9780303 L37.5554545,38.9780303 L37.5554545,43.5693182 C37.5554545,44.4753788 37.3407576,45.1200758 36.8783333,45.6079545 C36.4241667,46.0871212 35.7800758,46.3397727 34.9956061,46.3397727 C33.7982576,46.3397727 33.0798485,45.8170455 32.5843939,45.1200758" id="Shape" fill="#FFFFFF" fill-rule="nonzero"></path>
                        <polygon id="Shape" fill="#FFFFFF" fill-rule="nonzero" points="37.9931061 38.9780303 43.5091667 38.9780303 43.5091667 40.6768939 39.8758333 40.6768939 39.8758333 41.7833333 43.1706061 41.7833333 43.1706061 43.3602273 39.8758333 43.3602273 39.8758333 44.5102273 43.5587121 44.5102273 43.5587121 46.217803 37.9931061 46.217803"></polygon>
                        <polygon id="Shape" fill="#FFFFFF" fill-rule="nonzero" points="45.994697 40.7378788 43.9468182 40.7378788 43.9468182 38.9780303 49.9500758 38.9780303 49.9500758 40.7378788 47.8939394 40.7378788 47.8939394 46.217803 45.994697 46.217803"></polygon>
                        <path d="M32.7660606,47.9079545 L36.2837879,47.9079545 C37.1425758,47.9079545 37.7536364,48.1344697 38.15,48.5526515 C38.4225,48.8488636 38.5959091,49.232197 38.5959091,49.7287879 L38.5959091,49.7462121 C38.5959091,50.5825758 38.1417424,51.0791667 37.5389394,51.3579545 C38.3729545,51.6454545 38.9014394,52.1420455 38.9014394,53.1265152 L38.9014394,53.1439394 C38.9014394,54.3810606 37.9435606,55.1390152 36.300303,55.1390152 L32.7660606,55.1390152 L32.7660606,47.9079545 Z M36.7214394,50.1382576 C36.7214394,49.7375 36.4159091,49.519697 35.8626515,49.519697 L34.6157576,49.519697 L34.6157576,50.7916667 L35.8131061,50.7916667 C36.3911364,50.7916667 36.7214394,50.5825758 36.7214394,50.1643939 L36.7214394,50.1382576 Z M36.0608333,52.2030303 L34.6075,52.2030303 L34.6075,53.5359848 L36.0773485,53.5359848 C36.6636364,53.5359848 36.9856818,53.3007576 36.9856818,52.8738636 L36.9856818,52.8564394 C36.9939394,52.4556818 36.7049242,52.2030303 36.0608333,52.2030303 Z" id="Shape" fill="#FFFFFF" fill-rule="nonzero"></path>
                        <path d="M39.182197,47.9079545 L42.4274242,47.9079545 C43.4761364,47.9079545 44.202803,48.1954545 44.6652273,48.6833333 C45.0698485,49.1102273 45.2762879,49.6590909 45.2762879,50.3647727 L45.2762879,50.382197 C45.2762879,51.4973485 44.7147727,52.2291667 43.8642424,52.6125 L45.4992424,55.130303 L43.3109848,55.130303 L41.9319697,52.9348485 L41.089697,52.9348485 L41.089697,55.130303 L39.1904545,55.130303 L39.1904545,47.9079545 L39.182197,47.9079545 Z M42.3448485,51.3840909 C42.9806818,51.3840909 43.3605303,51.0530303 43.3605303,50.530303 L43.3605303,50.5128788 C43.3605303,49.9378788 42.9559091,49.6416667 42.3283333,49.6416667 L41.0731818,49.6416667 L41.0731818,51.392803 L42.3448485,51.392803 L42.3448485,51.3840909 Z" id="Shape" fill="#FFFFFF" fill-rule="nonzero"></path>
                        <path d="M47.4893182,47.8556818 L49.3225,47.8556818 L52.2456818,55.1390152 L50.2060606,55.1390152 L49.7106061,53.8409091 L47.0599242,53.8409091 L46.5727273,55.1390152 L44.5826515,55.1390152 L47.4893182,47.8556818 Z M49.1573485,52.2814394 L48.3893939,50.2340909 L47.6131818,52.2814394 L49.1573485,52.2814394 Z" id="Shape" fill="#FFFFFF" fill-rule="nonzero"></path>
                        <polygon id="Rectangle-path" fill="#FFFFFF" fill-rule="nonzero" points="52.4686364 47.9079545 54.3678788 47.9079545 54.3678788 55.1477273 52.4686364 55.1477273"></polygon>
                        <polygon id="Shape" fill="#FFFFFF" fill-rule="nonzero" points="54.8385606 47.9079545 56.6056818 47.9079545 59.4297727 51.7325758 59.4297727 47.9079545 61.3125 47.9079545 61.3125 55.1477273 59.6527273 55.1477273 56.7130303 51.175 56.7130303 55.1477273 54.8385606 55.1477273"></polygon>
                        <path d="M61.4281061,54.0674242 L62.4850758,52.7344697 C63.1704545,53.3007576 63.9136364,53.6056818 64.7063636,53.6056818 C65.2265909,53.6056818 65.4990909,53.4227273 65.4990909,53.1090909 L65.4990909,53.0916667 C65.4990909,52.7780303 65.2761364,52.6299242 64.3347727,52.3859848 C62.8731818,52.0375 61.7501515,51.6018939 61.7501515,50.1208333 L61.7501515,50.1034091 C61.7501515,48.7617424 62.7575758,47.7859848 64.4008333,47.7859848 C65.5651515,47.7859848 66.4817424,48.1170455 67.2249242,48.7443182 L66.275303,50.1556818 C65.6477273,49.6765152 64.9623485,49.4412879 64.3595455,49.4412879 C63.8971212,49.4412879 63.6741667,49.6416667 63.6741667,49.9030303 L63.6741667,49.9204545 C63.6741667,50.2515152 63.9136364,50.3996212 64.8715152,50.6261364 C66.4404545,50.9833333 67.4231061,51.5234848 67.4231061,52.8825758 L67.4231061,52.9 C67.4231061,54.3810606 66.3165909,55.2609848 64.6485606,55.2609848 C63.4264394,55.269697 62.2868939,54.8689394 61.4281061,54.0674242" id="Shape" fill="#FFFFFF" fill-rule="nonzero"></path>
                    </g>
                </g>
            </g>
        </g>
    </g>
</svg>