<svg width="43" height="45" viewBox="0 0 43 45" xmlns="http://www.w3.org/2000/svg">
    <g fill-rule="nonzero" fill="none">
        <path fill="#000" d="M.133.428h42.08v44.397H.133z"/>
        <path fill="#FFF" d="M3.766 36.505h15.78v2.77H3.766zM3.584 12.12l1.223-1.22c.33.427.644.671 1.081.671.47 0 .776-.34.776-1.01V5.978h1.891v4.591c0 .906-.214 1.551-.677 2.039-.454.48-1.098.732-1.882.732-1.198 0-1.916-.523-2.412-1.22M8.993 5.978h5.516v1.699h-3.633v1.106h3.295v1.577h-3.295v1.15h3.683v1.708H8.993zM16.995 7.738h-2.048v-1.76h6.003v1.76h-2.056v5.48h-1.9zM3.766 14.908h3.518c.859 0 1.47.226 1.866.645.272.296.446.68.446 1.176v.017c0 .837-.454 1.333-1.057 1.612.834.287 1.362.784 1.362 1.769v.017c0 1.237-.957 1.995-2.6 1.995H3.765v-7.231zm3.955 2.23c0-.4-.305-.618-.858-.618H5.616v1.272h1.197c.578 0 .908-.21.908-.628v-.026zm-.66 2.065H5.607v1.333h1.47c.587 0 .909-.235.909-.662v-.018c.008-.4-.281-.653-.925-.653zM10.182 14.908h3.245c1.05 0 1.776.287 2.238.775.405.427.611.976.611 1.682v.017c0 1.115-.561 1.847-1.412 2.23L16.5 22.13h-2.188l-1.379-2.195h-.842v2.195h-1.9v-7.222h-.008zm3.163 3.476c.636 0 1.016-.331 1.016-.854v-.017c0-.575-.405-.871-1.033-.871h-1.255v1.75h1.272v-.008z"/>
        <path d="M18.49 14.856h1.833l2.923 7.283h-2.04l-.495-1.298H18.06l-.487 1.298h-1.99l2.906-7.283zm1.667 4.425-.768-2.047-.776 2.047h1.544zM23.469 14.908h1.899v7.24h-1.9zM25.839 14.908h1.767l2.824 3.825v-3.825h1.883v7.24h-1.66l-2.94-3.973v3.973h-1.874zM32.428 21.067l1.057-1.333c.685.567 1.429.872 2.221.872.52 0 .793-.183.793-.497v-.017c0-.314-.223-.462-1.164-.706-1.462-.348-2.585-.784-2.585-2.265v-.018c0-1.341 1.008-2.317 2.65-2.317 1.165 0 2.082.331 2.825.958l-.95 1.412c-.627-.48-1.313-.715-1.915-.715-.463 0-.686.2-.686.462v.017c0 .332.24.48 1.198.706 1.568.357 2.551.897 2.551 2.257v.017c0 1.481-1.106 2.361-2.774 2.361-1.223.009-2.362-.392-3.22-1.194" fill="#FFF"/>
    </g>
</svg>
